<?xml version="1.0" encoding="utf-8"?>
<!-- Generator: Adobe Illustrator 16.0.0, SVG Export Plug-In . SVG Version: 6.00 Build 0)  -->
<!DOCTYPE svg PUBLIC "-//W3C//DTD SVG 1.1//EN" "http://www.w3.org/Graphics/SVG/1.1/DTD/svg11.dtd">
<svg version="1.1" id="Capa_1" xmlns="http://www.w3.org/2000/svg" xmlns:xlink="http://www.w3.org/1999/xlink" x="0px" y="0px"
	 width="210px" height="64.053px" viewBox="0 0 210 64.053" enable-background="new 0 0 210 64.053" xml:space="preserve">
<g>
	<g>
		<defs>
			<rect id="SVGID_1_" y="-0.002" width="210" height="64.055"/>
		</defs>
		<clipPath id="SVGID_2_">
			<use xlink:href="#SVGID_1_"  overflow="visible"/>
		</clipPath>
		<path clip-path="url(#SVGID_2_)" fill="#244289" d="M102.948,16.079v-1.786c-2.3-0.196-4.159-0.294-5.578-0.294
			c-1.713,0-3.426,0.196-5.04,0.539c-2.496,0.587-4.111,1.908-4.747,3.866c-0.587,1.958-0.685,2.936-0.685,4.893v8.76
			c0,1.958,0.098,2.936,0.685,4.893c0.636,1.958,2.251,3.279,4.747,3.865c1.419,0.344,2.838,0.49,4.257,0.539
			c1.419,0,2.936-0.146,4.551-0.489c1.664-0.343,2.985-0.734,3.964-1.272V31.91H97.81v-4.16h11.597v14.388
			c-3.866,2.25-8.172,3.377-12.821,3.377c-1.908-0.05-3.719-0.295-5.383-0.638c-4.502-1.026-6.655-3.376-7.878-5.627
			c-0.391-0.733-0.685-1.615-0.832-2.593c-0.343-1.957-0.392-2.838-0.392-4.6v-8.76c0-0.88,0-1.614,0.049-2.201
			c0.147-1.224,0.391-3.524,1.174-4.942c1.223-2.35,3.377-4.649,7.878-5.677c1.908-0.44,3.964-0.636,6.166-0.636
			c3.181,0,6.459,0.342,9.935,1.076v7.438h-2.08C103.967,18.354,102.948,17.336,102.948,16.079"/>
	</g>
	<g>
		<defs>
			<rect id="SVGID_3_" y="-0.002" width="210" height="64.055"/>
		</defs>
		<clipPath id="SVGID_4_">
			<use xlink:href="#SVGID_3_"  overflow="visible"/>
		</clipPath>
		<path clip-path="url(#SVGID_4_)" fill="#244289" d="M119.004,33.574c0,4.942,1.321,6.851,4.453,7.633
			c0.93,0.194,2.006,0.294,3.327,0.294c3.132,0,5.53-0.195,7.146-0.588v3.816c-2.595,0.539-4.992,0.785-7.146,0.785
			c-1.615,0-3.083-0.147-4.404-0.393c-3.181-0.734-5.284-2.055-6.409-3.866s-1.664-4.698-1.664-8.612
			c0-5.333,0.93-8.856,3.033-10.667c2.104-1.811,4.453-2.398,8.319-2.398c3.769,0,6.264,0.783,8.073,2.79
			c1.908,2.006,2.545,5.725,1.908,11.206L119.004,33.574L119.004,33.574z M131.287,30.099c0.391-4.942-1.126-6.802-5.627-6.802
			c-4.502,0-6.313,1.762-6.557,6.802H131.287z"/>
	</g>
	<g>
		<defs>
			<rect id="SVGID_5_" y="-0.002" width="210" height="64.055"/>
		</defs>
		<clipPath id="SVGID_6_">
			<use xlink:href="#SVGID_5_"  overflow="visible"/>
		</clipPath>
		<path clip-path="url(#SVGID_6_)" fill="#244289" d="M137.428,11.675V10.28h9.004v31.121h3.865v3.671h-12.429v-3.671h3.866v-27.45
			h-2.031C138.445,13.951,137.428,12.932,137.428,11.675"/>
	</g>
	<g>
		<defs>
			<rect id="SVGID_7_" y="-0.002" width="210" height="64.055"/>
		</defs>
		<clipPath id="SVGID_8_">
			<use xlink:href="#SVGID_7_"  overflow="visible"/>
		</clipPath>
		<path clip-path="url(#SVGID_8_)" fill="#244289" d="M152.059,11.675V10.28h9.004v31.121h3.865v3.671h-12.429v-3.671h3.866v-27.45
			h-2.031C153.076,13.951,152.059,12.932,152.059,11.675"/>
	</g>
	<g>
		<defs>
			<rect id="SVGID_9_" y="-0.002" width="210" height="64.055"/>
		</defs>
		<clipPath id="SVGID_10_">
			<use xlink:href="#SVGID_9_"  overflow="visible"/>
		</clipPath>
		<path clip-path="url(#SVGID_10_)" fill="#244289" d="M171.916,33.574c0,4.942,1.32,6.851,4.453,7.633
			c0.93,0.194,2.006,0.294,3.328,0.294c3.132,0,5.529-0.195,7.144-0.588v3.816c-2.594,0.539-4.991,0.785-7.144,0.785
			c-1.615,0-3.084-0.147-4.404-0.393c-3.182-0.734-5.285-2.055-6.41-3.866s-1.664-4.698-1.664-8.612
			c0-5.333,0.93-8.856,3.034-10.667c2.104-1.811,4.453-2.398,8.319-2.398c3.768,0,6.264,0.783,8.074,2.79
			c1.908,2.006,2.543,5.725,1.908,11.206L171.916,33.574L171.916,33.574z M184.197,30.099c0.392-4.942-1.125-6.802-5.627-6.802
			s-6.312,1.762-6.557,6.802H184.197z"/>
	</g>
	<g>
		<defs>
			<rect id="SVGID_11_" y="-0.002" width="210" height="64.055"/>
		</defs>
		<clipPath id="SVGID_12_">
			<use xlink:href="#SVGID_11_"  overflow="visible"/>
		</clipPath>
		<path clip-path="url(#SVGID_12_)" fill="#244289" d="M191.943,45.073v-3.67h3.865V23.688h-1.59c-1.257,0-2.275-1.019-2.275-2.275
			v-1.395h7.535l0.783,2.3c4.355-1.712,7.586-2.593,9.738-2.74v4.6c-4.014,0.196-7.193,0.734-9.493,1.664v15.562h3.866v3.67H191.943
			z"/>
	</g>
	<g>
		<defs>
			<rect id="SVGID_13_" y="-0.002" width="210" height="64.055"/>
		</defs>
		<clipPath id="SVGID_14_">
			<use xlink:href="#SVGID_13_"  overflow="visible"/>
		</clipPath>
		<path clip-path="url(#SVGID_14_)" fill="#244289" d="M111.716,63.942h-1.587l3.139-8.75h1.797l3.138,8.75h-1.589l-0.885-2.584
			h-3.127L111.716,63.942z M114.178,56.692h-0.037l-1.096,3.373h2.24L114.178,56.692z"/>
	</g>
	<g>
		<defs>
			<rect id="SVGID_15_" y="-0.002" width="210" height="64.055"/>
		</defs>
		<clipPath id="SVGID_16_">
			<use xlink:href="#SVGID_15_"  overflow="visible"/>
		</clipPath>
		<path clip-path="url(#SVGID_16_)" fill="#244289" d="M120.172,63.942v-8.75h3.421c0.312,0,0.576,0.012,0.794,0.037
			c0.217,0.024,0.447,0.08,0.689,0.166s0.438,0.209,0.585,0.369s0.271,0.383,0.368,0.672c0.1,0.287,0.148,0.631,0.148,1.033v0.234
			c0,0.418-0.103,0.771-0.308,1.059c-0.205,0.286-0.472,0.483-0.8,0.59c0.427,0.1,0.779,0.309,1.059,0.627
			c0.279,0.32,0.418,0.73,0.418,1.231v0.381c-0.008,0.41-0.074,0.765-0.197,1.064c-0.123,0.299-0.269,0.53-0.437,0.694
			s-0.384,0.293-0.646,0.381c-0.263,0.091-0.502,0.148-0.721,0.174c-0.217,0.023-0.475,0.037-0.77,0.037H120.172z M121.71,58.798
			h1.883c0.312,0,0.562-0.074,0.751-0.222c0.188-0.147,0.283-0.431,0.283-0.849v-0.209c0-0.41-0.092-0.686-0.277-0.824
			c-0.185-0.141-0.437-0.209-0.757-0.209h-1.883V58.798z M123.777,62.649c0.787,0,1.195-0.377,1.219-1.133V61.21
			c0-0.254-0.037-0.466-0.111-0.634s-0.181-0.289-0.32-0.363c-0.139-0.073-0.271-0.123-0.394-0.147s-0.271-0.037-0.442-0.037h-2.019
			v2.621H123.777L123.777,62.649z"/>
	</g>
	<g>
		<defs>
			<rect id="SVGID_17_" y="-0.002" width="210" height="64.055"/>
		</defs>
		<clipPath id="SVGID_18_">
			<use xlink:href="#SVGID_17_"  overflow="visible"/>
		</clipPath>
		<path clip-path="url(#SVGID_18_)" fill="#244289" d="M136.234,60.558c0,0.238-0.004,0.438-0.012,0.604
			c-0.008,0.164-0.039,0.377-0.092,0.64s-0.127,0.486-0.221,0.671c-0.094,0.184-0.236,0.383-0.426,0.596
			c-0.188,0.215-0.414,0.387-0.676,0.518c-0.264,0.131-0.6,0.242-1.01,0.332c-0.41,0.091-0.869,0.136-1.378,0.136
			c-0.517,0-0.978-0.045-1.384-0.136c-0.406-0.09-0.74-0.201-1.003-0.332s-0.488-0.302-0.677-0.511
			c-0.189-0.209-0.33-0.406-0.426-0.591c-0.095-0.186-0.168-0.41-0.222-0.678c-0.054-0.267-0.084-0.479-0.092-0.64
			c-0.009-0.16-0.013-0.358-0.013-0.597v-2.006c0-0.238,0.004-0.438,0.013-0.598c0.008-0.16,0.039-0.374,0.092-0.64
			c0.054-0.267,0.127-0.492,0.222-0.677c0.096-0.186,0.236-0.383,0.426-0.592c0.188-0.209,0.414-0.379,0.677-0.511
			c0.263-0.131,0.597-0.241,1.003-0.332s0.867-0.136,1.384-0.136c0.509,0,0.968,0.045,1.378,0.136s0.746,0.201,1.01,0.332
			c0.262,0.131,0.487,0.304,0.676,0.517c0.189,0.213,0.33,0.412,0.426,0.598c0.094,0.186,0.168,0.408,0.221,0.671
			c0.053,0.262,0.084,0.476,0.092,0.64s0.012,0.365,0.012,0.604V60.558z M130.145,60.569c0,0.854,0.183,1.433,0.547,1.736
			c0.365,0.303,0.941,0.455,1.729,0.455c0.837,0,1.427-0.16,1.767-0.479c0.34-0.32,0.51-0.894,0.51-1.724v-1.98
			c-0.008-0.846-0.186-1.424-0.529-1.735s-0.927-0.467-1.748-0.467c-0.82,0-1.404,0.153-1.754,0.461s-0.523,0.884-0.523,1.729v2.004
			H130.145z"/>
	</g>
	<g>
		<defs>
			<rect id="SVGID_19_" y="-0.002" width="210" height="64.055"/>
		</defs>
		<clipPath id="SVGID_20_">
			<use xlink:href="#SVGID_19_"  overflow="visible"/>
		</clipPath>
		<path clip-path="url(#SVGID_20_)" fill="#244289" d="M142.049,64.053c-0.574-0.017-1.078-0.081-1.514-0.196
			s-0.781-0.274-1.04-0.479c-0.259-0.206-0.47-0.413-0.634-0.622s-0.281-0.458-0.352-0.745c-0.07-0.286-0.115-0.524-0.135-0.714
			c-0.02-0.188-0.031-0.41-0.031-0.665v-2.129c0-0.222,0.004-0.413,0.012-0.571c0.008-0.16,0.039-0.367,0.092-0.623
			c0.054-0.254,0.13-0.474,0.229-0.658c0.1-0.185,0.244-0.381,0.438-0.59s0.423-0.379,0.688-0.512
			c0.267-0.131,0.609-0.242,1.027-0.332c0.418-0.091,0.89-0.136,1.416-0.136c0.771,0,1.624,0.091,2.56,0.271v1.23
			c-0.729-0.139-1.525-0.209-2.387-0.209c-0.895,0-1.536,0.172-1.926,0.518c-0.391,0.344-0.594,0.885-0.609,1.623v2.117
			c0,0.23,0.008,0.422,0.025,0.579c0.016,0.156,0.063,0.338,0.141,0.547s0.191,0.377,0.34,0.504c0.147,0.127,0.362,0.24,0.646,0.339
			c0.282,0.099,0.625,0.151,1.026,0.16c0.715,0,1.338-0.123,1.871-0.369v-1.748h-1.771v-1.219h3.212v3.729
			C144.387,63.753,143.279,64.053,142.049,64.053"/>
	</g>
	<g>
		<defs>
			<rect id="SVGID_21_" y="-0.002" width="210" height="64.055"/>
		</defs>
		<clipPath id="SVGID_22_">
			<use xlink:href="#SVGID_21_"  overflow="visible"/>
		</clipPath>
		<path clip-path="url(#SVGID_22_)" fill="#244289" d="M148.664,63.942h-1.588l3.138-8.75h1.798l3.137,8.75h-1.586l-0.887-2.584
			h-3.126L148.664,63.942z M151.125,56.692h-0.037l-1.095,3.373h2.239L151.125,56.692z"/>
	</g>
	<g>
		<defs>
			<rect id="SVGID_23_" y="-0.002" width="210" height="64.055"/>
		</defs>
		<clipPath id="SVGID_24_">
			<use xlink:href="#SVGID_23_"  overflow="visible"/>
		</clipPath>
		<path clip-path="url(#SVGID_24_)" fill="#244289" d="M157.119,63.942v-8.75h3.298c1.338,0.017,2.317,0.293,2.94,0.83
			c0.623,0.539,0.936,1.435,0.936,2.689v1.71c0,1.272-0.324,2.177-0.973,2.714c-0.647,0.537-1.615,0.807-2.903,0.807H157.119z
			 M160.417,62.649c0.854,0,1.454-0.17,1.804-0.512c0.348-0.34,0.522-0.912,0.522-1.717v-1.71c0-0.829-0.185-1.407-0.554-1.735
			s-0.961-0.492-1.772-0.492h-1.76v6.166H160.417z"/>
	</g>
	<g>
		<defs>
			<rect id="SVGID_25_" y="-0.002" width="210" height="64.055"/>
		</defs>
		<clipPath id="SVGID_26_">
			<use xlink:href="#SVGID_25_"  overflow="visible"/>
		</clipPath>
		<path clip-path="url(#SVGID_26_)" fill="#244289" d="M174.033,60.558c0,0.238-0.004,0.438-0.012,0.604
			c-0.008,0.164-0.039,0.377-0.094,0.64c-0.053,0.263-0.127,0.486-0.221,0.671s-0.236,0.383-0.425,0.596
			c-0.189,0.215-0.414,0.387-0.677,0.518c-0.262,0.131-0.6,0.242-1.01,0.332c-0.41,0.091-0.869,0.136-1.378,0.136
			c-0.517,0-0.978-0.045-1.384-0.136c-0.406-0.09-0.74-0.201-1.003-0.332s-0.488-0.302-0.677-0.511
			c-0.189-0.209-0.33-0.406-0.426-0.591c-0.095-0.186-0.168-0.41-0.222-0.678c-0.053-0.267-0.084-0.479-0.092-0.64
			s-0.013-0.358-0.013-0.597v-2.006c0-0.238,0.005-0.438,0.013-0.598s0.039-0.374,0.092-0.64c0.054-0.267,0.127-0.492,0.222-0.677
			c0.096-0.186,0.236-0.383,0.426-0.592c0.188-0.209,0.414-0.379,0.677-0.511c0.263-0.131,0.597-0.241,1.003-0.332
			s0.867-0.136,1.384-0.136c0.509,0,0.968,0.045,1.378,0.136s0.747,0.201,1.01,0.332s0.488,0.304,0.677,0.517
			s0.329,0.412,0.425,0.598c0.094,0.186,0.168,0.408,0.221,0.671c0.053,0.262,0.084,0.476,0.094,0.64
			c0.008,0.164,0.012,0.365,0.012,0.604V60.558z M167.941,60.569c0,0.854,0.183,1.433,0.547,1.736
			c0.365,0.303,0.941,0.455,1.729,0.455c0.837,0,1.427-0.16,1.767-0.479c0.34-0.32,0.511-0.894,0.511-1.724v-1.98
			c-0.009-0.846-0.185-1.424-0.53-1.735c-0.344-0.312-0.927-0.467-1.746-0.467c-0.82,0-1.406,0.153-1.755,0.461
			s-0.522,0.884-0.522,1.729V60.569L167.941,60.569z"/>
	</g>
	<g>
		<defs>
			<rect id="SVGID_27_" y="-0.002" width="210" height="64.055"/>
		</defs>
		<clipPath id="SVGID_28_">
			<use xlink:href="#SVGID_27_"  overflow="visible"/>
		</clipPath>
		<path clip-path="url(#SVGID_28_)" fill="#244289" d="M181.689,56.692c-0.229-0.09-0.597-0.164-1.102-0.221
			c-0.505-0.059-0.9-0.087-1.188-0.087c-0.592,0-1.026,0.074-1.305,0.222c-0.279,0.147-0.418,0.397-0.418,0.75
			c0,0.289,0.077,0.516,0.233,0.684c0.155,0.168,0.455,0.363,0.897,0.584l1.563,0.788c0.55,0.278,0.954,0.601,1.212,0.966
			c0.259,0.365,0.389,0.848,0.389,1.446c0,0.86-0.271,1.448-0.813,1.76c-0.542,0.312-1.383,0.468-2.523,0.468
			c-0.771,0-1.656-0.123-2.658-0.369V62.33c0.451,0.139,0.941,0.249,1.471,0.326s0.925,0.116,1.188,0.116
			c0.6,0,1.049-0.068,1.348-0.209c0.3-0.14,0.449-0.385,0.449-0.737c0-0.279-0.052-0.499-0.154-0.658
			c-0.104-0.16-0.285-0.306-0.549-0.437l-1.871-0.961c-0.655-0.336-1.107-0.655-1.354-0.959c-0.246-0.305-0.369-0.771-0.369-1.403
			c0-0.845,0.252-1.444,0.758-1.798c0.504-0.353,1.338-0.528,2.504-0.528c0.812,0,1.574,0.106,2.289,0.319v1.291H181.689z"/>
	</g>
	<g>
		<defs>
			<rect id="SVGID_29_" y="-0.002" width="210" height="64.055"/>
		</defs>
		<clipPath id="SVGID_30_">
			<use xlink:href="#SVGID_29_"  overflow="visible"/>
		</clipPath>
		<path clip-path="url(#SVGID_30_)" fill="#244289" d="M64.04,31.601c-0.038-1.54-1.315-2.792-2.847-2.792L28.061,28.81
			c-3.328,0-4.994,4.023-2.642,6.376l7.774,7.774c1.254,1.254,3.288,1.261,4.542,0.006l0.021-0.021c0.071-0.07,0.071-0.186,0-0.256
			l-9.657-9.653c-0.297-0.295-0.087-0.803,0.332-0.803h20.255c0.309,0,0.534,0.292,0.455,0.591
			c-0.395,1.484-1.209,2.843-2.895,4.527L35.708,47.892c-0.652,0.65-0.989,1.532-0.936,2.461c0.045,0.795,0.394,1.543,0.958,2.106
			c0.07,0.069,0.184,0.069,0.254,0l12.685-12.683c2.517-2.517,3.595-4.649,4.019-7.151c0.038-0.225,0.235-0.39,0.463-0.39h6.984
			c0.269,0,0.483,0.226,0.47,0.495c-0.17,3.379-1.562,6.527-3.965,8.931L41.636,56.662c-0.599,0.596-1.4,0.924-2.257,0.924
			c-0.889,0-1.724-0.347-2.354-0.976L16.2,35.783c-1.256-1.257-3.292-1.257-4.548,0l-0.021,0.021c-0.07,0.07-0.07,0.186,0,0.256
			l2.146,2.146l21.334,21.333c0.263,0.264,0.131,0.716-0.234,0.793c-0.931,0.195-1.886,0.296-2.851,0.296h-0.065
			c-3.561-0.017-7.121-1.542-9.765-4.187L7.336,41.581c-1.204-1.205-1.183-3.186,0.047-4.416l20.968-20.968l-0.001-0.001
			c0.651-0.65,0.988-1.532,0.936-2.459c-0.044-0.794-0.392-1.542-0.954-2.105l-0.003-0.002c-0.071-0.071-0.185-0.071-0.255,0
			L4.544,35.161c-0.262,0.263-0.71,0.132-0.792-0.229c-0.22-0.982-0.332-1.981-0.327-2.987c0.021-3.608,1.438-7.001,3.99-9.554
			L22.312,7.495c0.627-0.624,1.466-0.968,2.363-0.968c0.931,0,1.806,0.363,2.465,1.022l13.856,13.856
			c0.717,0.717,1.668,1.114,2.683,1.114h9.052c3.277,0,4.918-3.962,2.601-6.279L44.302,5.21c-3.279-3.278-7.705-5.179-12.142-5.213
			h-0.132c-2.257,0-4.445,0.43-6.504,1.279c-0.976,0.402-1.923,0.902-2.813,1.486c-0.984,0.645-1.906,1.395-2.739,2.228
			L5.224,19.739C1.892,23.071-0.012,27.565,0,32.07c0.006,2.343,0.475,4.609,1.396,6.733c0.419,0.966,0.933,1.901,1.528,2.777
			c0.607,0.894,1.304,1.735,2.07,2.501l14.758,14.758c3.28,3.28,7.706,5.18,12.143,5.213h0.132h0.001
			c2.256,0,4.443-0.431,6.502-1.279c0.977-0.401,1.925-0.902,2.816-1.486c0.983-0.645,1.904-1.395,2.737-2.227l14.978-14.979
			c3.215-3.215,4.985-7.497,4.984-12.056C64.045,31.884,64.043,31.742,64.04,31.601 M29.19,3.722
			c0.559-0.122,1.122-0.206,1.689-0.255c0.34-0.029,0.681-0.046,1.022-0.049h0.033l0.1-0.001c3.638,0,7.059,1.417,9.633,3.99
			l8.165,8.165l2.715,2.715c0.299,0.298,0.087,0.809-0.335,0.809l-7.938-0.002c-0.469,0-0.918-0.187-1.25-0.518L28.96,4.513
			c-0.082-0.082-0.126-0.182-0.136-0.284c-0.002-0.021-0.003-0.041-0.002-0.062C28.828,3.966,28.964,3.771,29.19,3.722"/>
	</g>
</g>
</svg>
